<?xml version="1.0" encoding="utf-8"?>
<!-- Generator: Adobe Illustrator 16.0.0, SVG Export Plug-In . SVG Version: 6.00 Build 0)  -->
<!DOCTYPE svg PUBLIC "-//W3C//DTD SVG 1.1//EN" "http://www.w3.org/Graphics/SVG/1.1/DTD/svg11.dtd">
<svg version="1.1" id="Layer_1" xmlns="http://www.w3.org/2000/svg" xmlns:xlink="http://www.w3.org/1999/xlink" x="0px" y="0px"
	 width="40.492px" height="63.5px" viewBox="0 0 40.492 63.5" enable-background="new 0 0 40.492 63.5" xml:space="preserve">
<g>
	<g>
		<g>
			<path fill-rule="evenodd" clip-rule="evenodd" fill="#DEE9F4" d="M15.84,54.259c5.369-0.148,10.566,1.799,11.605,4.348
				c1.041,2.55-2.467,4.737-7.836,4.886S9.045,61.693,8.004,59.145C6.963,56.595,10.473,54.407,15.84,54.259z"/>
			<path fill-rule="evenodd" clip-rule="evenodd" fill="#DDE8F3" d="M15.926,54.366c5.299-0.145,10.42,1.772,11.441,4.282
				c1.02,2.509-2.447,4.659-7.744,4.804c-5.297,0.144-10.42-1.773-11.439-4.282C7.162,56.661,10.629,54.51,15.926,54.366z"/>
			<path fill-rule="evenodd" clip-rule="evenodd" fill="#DCE7F2" d="M16.012,54.473c5.227-0.14,10.273,1.748,11.275,4.217
				c1,2.469-2.426,4.583-7.65,4.724c-5.227,0.14-10.275-1.749-11.275-4.217C7.361,56.728,10.785,54.612,16.012,54.473z"/>
			<path fill-rule="evenodd" clip-rule="evenodd" fill="#DBE6F1" d="M16.098,54.579c5.154-0.135,10.129,1.724,11.109,4.151
				c0.98,2.429-2.402,4.507-7.559,4.643c-5.154,0.136-10.127-1.724-11.107-4.151C7.559,56.794,10.943,54.715,16.098,54.579z"/>
			<path fill-rule="evenodd" clip-rule="evenodd" fill="#DAE5EF" d="M16.184,54.687c5.082-0.131,9.982,1.698,10.943,4.086
				s-2.381,4.43-7.465,4.561c-5.082,0.132-9.982-1.698-10.943-4.086S11.1,54.817,16.184,54.687z"/>
			<path fill-rule="evenodd" clip-rule="evenodd" fill="#D9E4EE" d="M16.27,54.794c5.012-0.127,9.836,1.673,10.777,4.021
				c0.941,2.347-2.359,4.353-7.371,4.479S9.838,61.62,8.896,59.273C7.957,56.926,11.256,54.92,16.27,54.794z"/>
			<path fill-rule="evenodd" clip-rule="evenodd" fill="#D8E2ED" d="M16.354,54.9c4.941-0.123,9.693,1.648,10.613,3.955
				c0.922,2.307-2.338,4.276-7.277,4.398c-4.941,0.123-9.693-1.647-10.613-3.955C8.154,56.992,11.414,55.022,16.354,54.9z"/>
			<path fill-rule="evenodd" clip-rule="evenodd" fill="#D7E1EC" d="M16.439,55.007c4.869-0.118,9.547,1.624,10.447,3.89
				c0.9,2.267-2.316,4.2-7.186,4.317c-4.867,0.119-9.545-1.622-10.445-3.889C8.354,57.059,11.57,55.126,16.439,55.007z"/>
			<path fill-rule="evenodd" clip-rule="evenodd" fill="#D6E0EB" d="M16.525,55.114c4.799-0.114,9.4,1.598,10.281,3.824
				c0.881,2.226-2.293,4.122-7.092,4.236c-4.797,0.114-9.4-1.598-10.281-3.824C8.553,57.125,11.729,55.229,16.525,55.114z"/>
			<path fill-rule="evenodd" clip-rule="evenodd" fill="#D4DFEA" d="M16.611,55.221c4.727-0.109,9.256,1.573,10.117,3.759
				c0.859,2.186-2.273,4.046-7,4.156c-4.727,0.109-9.256-1.573-10.117-3.759C8.752,57.191,11.885,55.331,16.611,55.221z"/>
			<path fill-rule="evenodd" clip-rule="evenodd" fill="#D3DEE8" d="M16.697,55.328c4.654-0.105,9.109,1.548,9.951,3.692
				c0.84,2.146-2.252,3.97-6.906,4.075c-4.656,0.105-9.111-1.548-9.951-3.693C8.949,57.258,12.043,55.434,16.697,55.328z"/>
			<path fill-rule="evenodd" clip-rule="evenodd" fill="#D2DDE7" d="M16.783,55.435c4.584-0.101,8.965,1.523,9.785,3.628
				s-2.23,3.893-6.813,3.994c-4.584,0.101-8.965-1.523-9.785-3.628C9.148,57.323,12.199,55.536,16.783,55.435z"/>
			<path fill-rule="evenodd" clip-rule="evenodd" fill="#D1DCE6" d="M16.869,55.542c4.512-0.097,8.818,1.498,9.619,3.562
				c0.801,2.064-2.209,3.816-6.721,3.913s-8.818-1.498-9.619-3.563S12.355,55.639,16.869,55.542z"/>
			<path fill-rule="evenodd" clip-rule="evenodd" fill="#D0DBE5" d="M16.955,55.648c4.439-0.093,8.672,1.474,9.453,3.497
				s-2.186,3.739-6.627,3.832c-4.441,0.092-8.674-1.474-9.455-3.498C9.547,57.456,12.514,55.741,16.955,55.648z"/>
			<path fill-rule="evenodd" clip-rule="evenodd" fill="#CFDAE4" d="M17.039,55.755c4.371-0.088,8.529,1.449,9.289,3.432
				c0.762,1.983-2.164,3.663-6.533,3.751s-8.529-1.448-9.289-3.432S12.67,55.844,17.039,55.755z"/>
			<path fill-rule="evenodd" clip-rule="evenodd" fill="#CED9E3" d="M17.125,55.862c4.299-0.084,8.383,1.423,9.123,3.366
				c0.742,1.942-2.143,3.585-6.439,3.669c-4.299,0.084-8.383-1.423-9.125-3.365C9.943,57.589,12.828,55.946,17.125,55.862z"/>
			<path fill-rule="evenodd" clip-rule="evenodd" fill="#CDD7E1" d="M17.211,55.97c4.227-0.08,8.238,1.397,8.957,3.3
				c0.721,1.902-2.121,3.509-6.348,3.589c-4.227,0.079-8.236-1.398-8.957-3.301S12.984,56.049,17.211,55.97z"/>
			<path fill-rule="evenodd" clip-rule="evenodd" fill="#CCD6E0" d="M17.297,56.076c4.154-0.075,8.092,1.373,8.791,3.235
				c0.701,1.861-2.1,3.432-6.254,3.507s-8.092-1.373-8.793-3.235C10.342,57.722,13.141,56.151,17.297,56.076z"/>
			<path fill-rule="evenodd" clip-rule="evenodd" fill="#CBD5DF" d="M17.383,56.183c4.084-0.07,7.945,1.349,8.627,3.17
				c0.68,1.821-2.078,3.355-6.162,3.427c-4.084,0.07-7.947-1.349-8.627-3.17C10.539,57.788,13.299,56.254,17.383,56.183z"/>
			<path fill-rule="evenodd" clip-rule="evenodd" fill="#CAD4DE" d="M17.469,56.29c4.012-0.066,7.801,1.323,8.461,3.104
				c0.66,1.781-2.057,3.279-6.068,3.346c-4.014,0.066-7.801-1.323-8.463-3.104C10.738,57.854,13.455,56.356,17.469,56.29z"/>
			<path fill-rule="evenodd" clip-rule="evenodd" fill="#C9D3DD" d="M17.553,56.396c3.941-0.062,7.656,1.298,8.297,3.039
				c0.641,1.74-2.035,3.202-5.977,3.265c-3.941,0.062-7.654-1.299-8.295-3.039S13.613,56.459,17.553,56.396z"/>
			<path fill-rule="evenodd" clip-rule="evenodd" fill="#C8D2DC" d="M17.639,56.503c3.871-0.058,7.51,1.273,8.131,2.974
				s-2.014,3.126-5.883,3.184s-7.51-1.273-8.131-2.974C11.137,57.986,13.77,56.562,17.639,56.503z"/>
			<path fill-rule="evenodd" clip-rule="evenodd" fill="#C7D1DB" d="M17.725,56.61c3.799-0.054,7.365,1.248,7.965,2.908
				c0.602,1.66-1.992,3.048-5.789,3.103c-3.799,0.053-7.365-1.249-7.965-2.908C11.334,58.053,13.926,56.664,17.725,56.61z"/>
			<path fill-rule="evenodd" clip-rule="evenodd" fill="#C6D0D9" d="M17.811,56.718c3.727-0.05,7.219,1.223,7.799,2.842
				c0.582,1.619-1.969,2.973-5.697,3.021c-3.727,0.049-7.219-1.224-7.799-2.843S14.084,56.767,17.811,56.718z"/>
			<path fill-rule="evenodd" clip-rule="evenodd" fill="#C5CFD8" d="M17.896,56.824c3.654-0.045,7.072,1.198,7.633,2.777
				s-1.947,2.895-5.604,2.939c-3.654,0.046-7.072-1.198-7.633-2.776C11.732,58.186,14.24,56.869,17.896,56.824z"/>
			<path fill-rule="evenodd" clip-rule="evenodd" fill="#C4CED7" d="M17.982,56.931c3.584-0.04,6.928,1.174,7.469,2.712
				c0.539,1.538-1.928,2.818-5.512,2.859c-3.584,0.04-6.928-1.173-7.469-2.712C11.93,58.252,14.398,56.972,17.982,56.931z"/>
			<path fill-rule="evenodd" clip-rule="evenodd" fill="#C2CCD6" d="M18.068,57.038c3.512-0.037,6.781,1.148,7.303,2.646
				c0.52,1.498-1.906,2.741-5.418,2.777c-3.514,0.037-6.783-1.148-7.303-2.646C12.129,58.318,14.555,57.074,18.068,57.038z"/>
			<path fill-rule="evenodd" clip-rule="evenodd" fill="#C1CBD5" d="M18.152,57.145c3.441-0.032,6.637,1.124,7.139,2.581
				c0.5,1.457-1.883,2.665-5.324,2.697s-6.639-1.124-7.139-2.581S14.711,57.177,18.152,57.145z"/>
			<path fill-rule="evenodd" clip-rule="evenodd" fill="#C0CAD4" d="M18.238,57.252c3.371-0.028,6.492,1.098,6.973,2.515
				c0.48,1.418-1.861,2.589-5.232,2.616c-3.369,0.028-6.49-1.099-6.971-2.515C12.527,58.45,14.869,57.279,18.238,57.252z"/>
			<path fill-rule="evenodd" clip-rule="evenodd" fill="#BFC9D2" d="M18.324,57.358c3.299-0.023,6.346,1.073,6.807,2.45
				c0.461,1.376-1.84,2.511-5.139,2.535c-3.299,0.023-6.346-1.073-6.807-2.45C12.725,58.518,15.025,57.382,18.324,57.358z"/>
			<path fill-rule="evenodd" clip-rule="evenodd" fill="#BEC8D1" d="M18.41,57.466c3.227-0.02,6.201,1.048,6.641,2.384
				c0.441,1.336-1.818,2.435-5.045,2.454s-6.201-1.049-6.641-2.385C12.924,58.583,15.184,57.484,18.41,57.466z"/>
			<path fill-rule="evenodd" clip-rule="evenodd" fill="#BDC7D0" d="M18.496,57.572c3.156-0.015,6.055,1.023,6.475,2.319
				c0.422,1.296-1.797,2.357-4.951,2.373c-3.156,0.015-6.055-1.023-6.477-2.319C13.123,58.649,15.34,57.587,18.496,57.572z"/>
			<path fill-rule="evenodd" clip-rule="evenodd" fill="#BCC6CF" d="M18.582,57.679c3.084-0.01,5.908,0.999,6.309,2.254
				c0.402,1.256-1.773,2.281-4.859,2.292c-3.084,0.011-5.908-0.998-6.309-2.254C13.322,58.716,15.496,57.689,18.582,57.679z"/>
			<path fill-rule="evenodd" clip-rule="evenodd" fill="#BBC5CE" d="M18.668,57.786c3.012-0.006,5.764,0.974,6.143,2.188
				c0.381,1.214-1.752,2.204-4.766,2.21c-3.014,0.007-5.764-0.973-6.145-2.188S15.654,57.792,18.668,57.786z"/>
			<path fill-rule="evenodd" clip-rule="evenodd" fill="#BAC4CD" d="M18.752,57.894c2.943-0.003,5.619,0.948,5.98,2.122
				c0.359,1.174-1.732,2.128-4.674,2.13s-5.619-0.948-5.979-2.123C13.719,58.849,15.811,57.896,18.752,57.894z"/>
			<path fill-rule="evenodd" clip-rule="evenodd" fill="#B9C3CC" d="M18.838,58c2.871,0.002,5.473,0.923,5.814,2.058
				c0.34,1.134-1.711,2.051-4.58,2.048c-2.871-0.002-5.475-0.923-5.814-2.057S15.969,57.998,18.838,58z"/>
			<path fill-rule="evenodd" clip-rule="evenodd" fill="#B8C1CA" d="M18.924,58.106c2.799,0.007,5.328,0.898,5.648,1.992
				s-1.689,1.975-4.488,1.968s-5.326-0.898-5.646-1.992C14.115,58.981,16.125,58.101,18.924,58.106z"/>
			<path fill-rule="evenodd" clip-rule="evenodd" fill="#B7C0C9" d="M19.01,58.214c2.727,0.011,5.182,0.873,5.482,1.927
				c0.301,1.052-1.666,1.897-4.395,1.886c-2.727-0.011-5.182-0.873-5.482-1.926S16.283,58.202,19.01,58.214z"/>
			<path fill-rule="evenodd" clip-rule="evenodd" fill="#B6BFC8" d="M19.096,58.32c2.656,0.016,5.035,0.849,5.316,1.861
				s-1.645,1.82-4.301,1.806c-2.656-0.016-5.037-0.849-5.316-1.861C14.514,59.113,16.439,58.306,19.096,58.32z"/>
			<path fill-rule="evenodd" clip-rule="evenodd" fill="#B5BEC7" d="M19.182,58.427c2.584,0.021,4.891,0.824,5.15,1.797
				c0.262,0.972-1.623,1.743-4.207,1.724c-2.586-0.02-4.893-0.823-5.152-1.796C14.713,59.18,16.596,58.408,19.182,58.427z"/>
			<path fill-rule="evenodd" clip-rule="evenodd" fill="#B4BDC6" d="M19.266,58.534c2.514,0.024,4.746,0.799,4.986,1.73
				c0.242,0.932-1.602,1.667-4.115,1.644c-2.512-0.024-4.744-0.799-4.986-1.73C14.91,59.246,16.754,58.511,19.266,58.534z"/>
			<path fill-rule="evenodd" clip-rule="evenodd" fill="#B3BCC5" d="M19.352,58.642c2.443,0.028,4.602,0.773,4.822,1.664
				c0.221,0.892-1.582,1.591-4.023,1.563s-4.6-0.773-4.82-1.664C15.109,59.313,16.91,58.613,19.352,58.642z"/>
			<path fill-rule="evenodd" clip-rule="evenodd" fill="#B2BBC3" d="M19.438,58.748c2.371,0.032,4.455,0.749,4.656,1.6
				c0.199,0.851-1.559,1.514-3.93,1.481c-2.371-0.033-4.455-0.749-4.656-1.6C15.309,59.379,17.068,58.716,19.438,58.748z"/>
			<path fill-rule="evenodd" clip-rule="evenodd" fill="#B0BAC2" d="M19.523,58.854c2.299,0.037,4.309,0.725,4.49,1.534
				c0.18,0.811-1.537,1.437-3.836,1.4c-2.301-0.037-4.311-0.724-4.49-1.534C15.508,59.445,17.225,58.818,19.523,58.854z"/>
			<path fill-rule="evenodd" clip-rule="evenodd" fill="#AFB9C1" d="M19.609,58.962c2.229,0.041,4.164,0.698,4.324,1.469
				c0.16,0.77-1.516,1.36-3.742,1.318c-2.229-0.041-4.164-0.698-4.326-1.468C15.705,59.512,17.381,58.921,19.609,58.962z"/>
			<path fill-rule="evenodd" clip-rule="evenodd" fill="#AEB8C0" d="M19.695,59.068c2.156,0.046,4.018,0.674,4.158,1.403
				s-1.494,1.283-3.65,1.238s-4.018-0.674-4.158-1.403S17.539,59.023,19.695,59.068z"/>
			<path fill-rule="evenodd" clip-rule="evenodd" fill="#ADB6BF" d="M19.781,59.176c2.084,0.05,3.873,0.648,3.992,1.337
				c0.121,0.689-1.473,1.207-3.557,1.157s-3.873-0.648-3.994-1.337C16.104,59.645,17.695,59.126,19.781,59.176z"/>
			<path fill-rule="evenodd" clip-rule="evenodd" fill="#ACB5BE" d="M19.867,59.282c2.014,0.055,3.727,0.624,3.826,1.272
				c0.102,0.648-1.449,1.13-3.463,1.076s-3.729-0.624-3.828-1.272C16.301,59.71,17.852,59.229,19.867,59.282z"/>
			<path fill-rule="evenodd" clip-rule="evenodd" fill="#ABB4BC" d="M19.951,59.39c1.943,0.059,3.582,0.599,3.662,1.207
				c0.082,0.607-1.428,1.053-3.369,0.994c-1.943-0.058-3.584-0.598-3.664-1.206S18.01,59.331,19.951,59.39z"/>
			<path fill-rule="evenodd" clip-rule="evenodd" fill="#AAB3BB" d="M20.037,59.496c1.871,0.063,3.438,0.574,3.496,1.142
				c0.061,0.567-1.406,0.977-3.277,0.914s-3.436-0.574-3.496-1.142S18.166,59.434,20.037,59.496z"/>
			<path fill-rule="evenodd" clip-rule="evenodd" fill="#A9B2BA" d="M20.123,59.604c1.799,0.066,3.291,0.548,3.332,1.075
				c0.039,0.527-1.387,0.9-3.186,0.833c-1.799-0.066-3.291-0.549-3.332-1.075C16.898,59.909,18.324,59.536,20.123,59.604z"/>
			<path fill-rule="evenodd" clip-rule="evenodd" fill="#A8B1B9" d="M20.209,59.71c1.729,0.071,3.145,0.523,3.166,1.011
				c0.02,0.486-1.365,0.823-3.092,0.752c-1.729-0.071-3.146-0.523-3.166-1.011C17.096,59.976,18.48,59.639,20.209,59.71z"/>
		</g>
		<path fill-rule="evenodd" clip-rule="evenodd" fill="#AA2C26" d="M20.246,0C9.064,0,0,9.064,0,20.246
			c0,2.375,0.816,6.724,1.965,8.711l18.281,31.634l18.197-31.459c1.043-1.806,2.049-6.511,2.049-8.886
			C40.492,9.064,31.428,0,20.246,0z"/>
		<path fill-rule="evenodd" clip-rule="evenodd" fill="#DB4436" d="M20.246,60.591l18.197-31.459
			c1.043-1.806,2.049-6.511,2.049-8.886C40.492,9.064,31.428,0,20.246,0V60.591z"/>
		<path fill-rule="evenodd" clip-rule="evenodd" fill="#FFFFFF" d="M20.246,36.865c9.152,0,16.619-7.466,16.619-16.619
			S29.398,3.627,20.246,3.627c-9.154,0-16.619,7.466-16.619,16.619S11.092,36.865,20.246,36.865z"/>
	</g>
	<polygon fill="#DB4436" points="15.311,12.388 27.584,19.475 15.311,26.561 	"/>
</g>
</svg>
